<?xml version="1.0" standalone="no"?>
<!DOCTYPE svg PUBLIC "-//W3C//DTD SVG 20010904//EN"
 "http://www.w3.org/TR/2001/REC-SVG-20010904/DTD/svg10.dtd">
<svg version="1.0" xmlns="http://www.w3.org/2000/svg"
 width="512.000000pt" height="512.000000pt" viewBox="0 0 512.000000 512.000000"
 preserveAspectRatio="xMidYMid meet">
<metadata>
Created by potrace 1.11, written by Peter Selinger 2001-2013
</metadata>
<g transform="translate(0.000000,512.000000) scale(0.100000,-0.100000)"
fill="#000000" stroke="none">
<path d="M408 4751 c-40 -19 -45 -38 -44 -174 l1 -117 -40 0 c-193 -2 -254
-30 -304 -140 -20 -45 -21 -57 -21 -1475 0 -1551 -3 -1465 52 -1478 22 -6 23
-10 23 -107 0 -87 -2 -100 -17 -100 -9 0 -26 -12 -38 -27 -21 -27 -22 -35 -18
-244 3 -215 3 -216 30 -256 32 -48 79 -85 127 -102 24 -8 303 -11 996 -11
l961 0 22 -38 c12 -21 34 -51 49 -67 53 -54 71 -56 374 -56 333 -1 341 1 406
101 l38 60 959 0 c726 0 969 3 1000 12 59 18 129 91 144 150 9 35 12 416 12
1483 l0 1436 -23 23 c-13 13 -29 25 -37 28 -18 6 -18 190 1 197 7 2 23 14 36
27 23 23 24 27 23 208 -2 201 -8 237 -53 291 -48 59 -98 78 -207 81 -52 2 -97
3 -100 4 -3 0 -5 51 -4 112 0 62 -3 124 -6 138 -13 53 11 52 -989 52 -511 0
-946 -4 -967 -8 -61 -11 -142 -53 -190 -99 l-44 -42 -45 43 c-52 51 -136 92
-203 100 -27 3 -459 6 -962 7 -770 2 -918 0 -942 -12z"/>
</g>
</svg>
